<?xml version="1.0" encoding="UTF-8"?>
<svg id="Vrstva_4" data-name="Vrstva 4" xmlns="http://www.w3.org/2000/svg" viewBox="0 0 450 450">
  <defs>
    <style>
      .cls-1 {
        fill: #fff;
      }

      .cls-2 {
        fill: #134c5e;
      }

      .cls-3 {
        fill: #eac11f;
      }

      .cls-4 {
        fill: #ffd400;
      }

      .cls-5 {
        fill: #0c556c;
      }

      .cls-6 {
        fill: #007577;
      }

      .cls-7 {
        fill: #f4c114;
      }

      .cls-8 {
        fill: #f8ca0a;
      }

      .cls-9 {
        fill: #8cbe4d;
      }

      .cls-10 {
        fill: #59ac57;
      }

      .cls-11 {
        fill: #cfc42a;
      }

      .cls-12 {
        fill: #94bb49;
      }
    </style>
  </defs>
  <g>
    <g>
      <polygon class="cls-8" points="282.65 387.97 292.76 387.97 292.79 387.96 282.66 387.96 282.65 387.97"/>
      <polygon class="cls-8" points="321.19 325.57 282.66 387.96 292.79 387.96 353.18 357.37 321.19 325.57"/>
      <polygon class="cls-8" points="340.24 387.97 346.37 387.96 340.24 387.96 340.24 387.97"/>
      <path class="cls-8" d="m340.24,387.96h6.12l20.72-.05c4.97-.11,9.46-1.95,13.04-4.9l-26.94-25.64-12.94,30.58Z"/>
      <polygon class="cls-8" points="321.19 325.57 368.8 278.13 292.08 266 321.19 325.57"/>
    </g>
    <g>
      <polygon class="cls-4" points="332.45 62.03 353.19 152.8 387.96 110.82 387.96 100.52 338.05 62.03 332.45 62.03"/>
      <polygon class="cls-4" points="321.11 109.2 330.09 62.03 322.73 62.03 268.81 95.6 321.11 109.2"/>
      <polygon class="cls-4" points="387.96 236.27 387.96 176.29 337.21 202.51 387.96 236.27"/>
      <polygon class="cls-4" points="387.96 308.99 387.96 247.89 368.8 278.13 387.96 308.99"/>
      <path class="cls-4" d="m386.55,374.06c.87-2.33,1.41-4.82,1.41-7.46v-44.06l-34.78,34.83,33.37,16.68Z"/>
      <polygon class="cls-4" points="286.58 177.68 353.19 152.8 321.11 109.2 286.58 177.68"/>
      <polygon class="cls-4" points="243.26 202.52 292.08 266 286.58 177.68 243.26 202.52"/>
      <polygon class="cls-4" points="292.08 266 368.8 278.13 337.21 202.51 292.08 266"/>
      <polygon class="cls-4" points="292.76 387.97 340.24 387.97 340.24 387.96 292.79 387.96 292.76 387.97"/>
      <polygon class="cls-4" points="292.79 387.96 340.24 387.96 353.18 357.37 292.79 387.96"/>
      <polygon class="cls-4" points="276.03 387.97 282.65 387.97 282.66 387.96 276.03 387.96 276.03 387.97"/>
      <polygon class="cls-4" points="254.76 312.54 276.03 387.96 282.66 387.96 321.19 325.57 254.76 312.54"/>
    </g>
    <g>
      <polygon class="cls-3" points="353.18 357.37 368.8 278.13 321.19 325.57 353.18 357.37"/>
      <path class="cls-3" d="m366.61,62.03h-28.78l50.14,38.49v-17.14c0-11.79-9.56-21.35-21.35-21.35Z"/>
      <polygon class="cls-3" points="353.19 152.8 332.45 62.03 330.09 62.03 321.11 109.2 353.19 152.8"/>
      <polygon class="cls-3" points="268.81 95.6 255.24 62.03 251.55 62.03 241.69 95.54 268.81 95.6"/>
      <polygon class="cls-3" points="321.19 325.57 292.08 266 254.76 312.54 321.19 325.57"/>
      <polygon class="cls-3" points="368.8 278.13 387.96 247.9 387.96 236.26 337.21 202.51 368.8 278.13"/>
      <polygon class="cls-3" points="292.08 266 337.21 202.51 286.58 177.68 292.08 266"/>
      <polygon class="cls-3" points="337.21 202.51 387.96 176.28 387.96 170.82 353.19 152.8 337.21 202.51"/>
      <path class="cls-3" d="m380.12,383.01c2.87-2.36,5.1-5.41,6.43-8.95l-33.37-16.68,26.94,25.64Z"/>
      <polygon class="cls-3" points="286.58 177.68 321.11 109.2 268.81 95.6 286.58 177.68"/>
      <polygon class="cls-3" points="218.16 260.04 292.08 266 243.26 202.52 218.16 260.04"/>
    </g>
    <g>
      <polygon class="cls-12" points="241.69 95.54 216.82 62.03 210.56 62.03 192.49 104.92 241.69 95.54"/>
      <polygon class="cls-12" points="200.18 152.84 286.58 177.68 241.69 95.54 200.18 152.84"/>
      <polygon class="cls-12" points="218.08 259.89 177.44 191.11 167.27 278.52 218.08 259.89"/>
      <polygon class="cls-12" points="200.18 152.84 177.44 191.11 243.26 202.52 200.18 152.84"/>
      <polygon class="cls-9" points="159.54 333.13 254.76 312.54 167.27 278.52 159.54 333.13"/>
    </g>
    <g>
      <polygon class="cls-7" points="353.18 357.37 387.96 322.64 387.96 308.99 368.8 278.13 353.18 357.37"/>
      <polygon class="cls-7" points="387.96 170.82 387.96 110.74 353.19 152.8 387.96 170.82"/>
      <polygon class="cls-7" points="322.73 62.03 255.13 62.03 268.81 95.6 322.73 62.03"/>
      <polygon class="cls-7" points="337.21 202.51 353.19 152.8 286.58 177.68 337.21 202.51"/>
      <polygon class="cls-7" points="254.76 312.54 292.08 266 218.05 260.03 254.76 312.54"/>
    </g>
    <g>
      <polygon class="cls-11" points="241.69 95.54 286.58 177.68 268.81 95.6 241.69 95.54"/>
      <polygon class="cls-11" points="243.26 202.52 286.58 177.68 200.18 152.84 243.26 202.52"/>
      <polygon class="cls-11" points="190.65 387.97 276.03 387.97 276.03 387.96 190.67 387.96 190.65 387.97"/>
      <polygon class="cls-11" points="190.67 387.96 276.03 387.96 254.76 312.54 190.67 387.96"/>
      <polygon class="cls-11" points="251.55 62.03 216.76 62.03 241.69 95.54 251.55 62.03"/>
    </g>
    <g>
      <polygon class="cls-6" points="147.3 244.11 177.44 191.11 103.5 226.19 147.3 244.11"/>
      <polygon class="cls-6" points="110.38 387.97 181.54 387.97 181.54 387.96 110.39 387.96 110.38 387.97"/>
      <polygon class="cls-6" points="110.39 387.96 181.54 387.96 159.54 333.13 110.39 387.96"/>
      <polygon class="cls-6" points="210.74 62.03 166.02 62.03 192.49 104.92 210.74 62.03"/>
      <polygon class="cls-6" points="200.18 152.84 192.49 104.92 134.79 145.59 200.18 152.84"/>
      <polygon class="cls-6" points="156.44 62.03 113.48 62.03 106.84 102.76 156.44 62.03"/>
      <polygon class="cls-6" points="159.54 333.13 167.27 278.52 100.09 312.45 159.54 333.13"/>
    </g>
    <g>
      <polygon class="cls-5" points="62.04 231.15 62.04 276.19 103.5 226.19 62.04 231.15"/>
      <polygon class="cls-5" points="192.49 104.92 166.02 62.03 161.12 62.03 134.79 145.59 192.49 104.92"/>
      <polygon class="cls-5" points="106.84 102.76 62.04 126.25 62.04 131.45 134.79 145.59 106.84 102.76"/>
      <polygon class="cls-5" points="134.79 145.59 62.04 174.65 62.04 184.97 103.5 226.19 134.79 145.59"/>
      <polygon class="cls-5" points="177.44 191.11 200.18 152.84 134.79 145.59 177.44 191.11"/>
      <polygon class="cls-5" points="147.3 244.11 62.04 281.78 62.04 289.39 100.09 312.45 147.3 244.11"/>
      <polygon class="cls-5" points="96.06 387.97 103.23 387.97 103.23 387.96 96.05 387.96 96.06 387.97"/>
      <polygon class="cls-5" points="62.04 341.33 62.04 354.09 96.05 387.96 103.23 387.96 100.09 312.45 62.04 341.33"/>
      <path class="cls-5" d="m113.62,62.03l-31.75.15c-5.38.39-10.21,2.68-13.75,6.32l38.72,34.26,6.78-40.73Z"/>
    </g>
    <g>
      <polygon class="cls-2" points="134.79 145.59 161.12 62.03 156.39 62.03 106.84 102.76 134.79 145.59"/>
      <polygon class="cls-2" points="62.04 131.45 62.04 174.65 134.79 145.59 62.04 131.45"/>
      <polygon class="cls-2" points="96.06 387.97 96.05 387.96 93.81 387.96 96.06 387.97"/>
      <path class="cls-2" d="m62.04,366.63c.02,11.54,9.2,20.88,20.66,21.25l11.11.07h2.24l-34.01-33.87v12.54Z"/>
      <polygon class="cls-2" points="62.04 289.41 62.04 341.33 100.09 312.45 62.04 289.41"/>
      <polygon class="cls-2" points="134.79 145.59 103.5 226.19 177.44 191.11 134.79 145.59"/>
      <polygon class="cls-2" points="62.04 184.97 62.04 231.15 103.5 226.19 62.04 184.97"/>
      <polygon class="cls-2" points="103.5 226.19 62.04 276.19 62.04 281.78 147.3 244.11 103.5 226.19"/>
      <polygon class="cls-2" points="103.23 387.97 110.38 387.97 110.39 387.96 103.23 387.96 103.23 387.97"/>
      <polygon class="cls-2" points="100.09 312.45 103.23 387.96 110.39 387.96 159.54 333.13 100.09 312.45"/>
      <path class="cls-2" d="m68.11,68.5c-3.44,3.53-5.59,8.26-5.94,13.5l-.14,44.25,44.8-23.49-38.72-34.26Z"/>
      <polygon class="cls-2" points="100.09 312.45 167.27 278.52 147.3 244.11 100.09 312.45"/>
    </g>
    <g>
      <polygon class="cls-10" points="218.08 259.89 243.26 202.52 177.44 191.11 218.08 259.89"/>
      <polygon class="cls-10" points="167.27 278.52 254.76 312.54 218.08 259.89 167.27 278.52"/>
      <polygon class="cls-10" points="181.54 387.97 190.65 387.97 190.67 387.96 181.54 387.96 181.54 387.97"/>
      <polygon class="cls-10" points="159.54 333.13 181.54 387.96 190.67 387.96 254.76 312.54 159.54 333.13"/>
      <polygon class="cls-10" points="167.27 278.52 177.44 191.11 147.3 244.11 167.27 278.52"/>
      <polygon class="cls-10" points="200.18 152.84 241.69 95.54 192.49 104.92 200.18 152.84"/>
    </g>
  </g>
  <g>
    <rect class="cls-1" x="290.22" y="113.89" width="49.42" height="222.08" rx="5.49" ry="5.49"/>
    <rect class="cls-1" x="230.43" y="155.99" width="49.42" height="179.99" rx="5.49" ry="5.49"/>
    <rect class="cls-1" x="170.64" y="197.48" width="49.42" height="138.5" rx="5.49" ry="5.49"/>
    <rect class="cls-1" x="110.85" y="239.58" width="49.42" height="96.4" rx="5.49" ry="5.49"/>
  </g>
</svg>